<?xml version="1.0" encoding="UTF-8" standalone="no"?>
<svg
   id="svg2"
   viewBox="0 0 176.26423 350.35812"
   version="1.0"
   sodipodi:docname="hot-water-bottle4.svg"
   width="176.26422"
   height="350.35812"
   inkscape:version="1.1.1 (3bf5ae0d25, 2021-09-20, custom)"
   xmlns:inkscape="http://www.inkscape.org/namespaces/inkscape"
   xmlns:sodipodi="http://sodipodi.sourceforge.net/DTD/sodipodi-0.dtd"
   xmlns="http://www.w3.org/2000/svg"
   xmlns:svg="http://www.w3.org/2000/svg"
   xmlns:rdf="http://www.w3.org/1999/02/22-rdf-syntax-ns#"
   xmlns:cc="http://creativecommons.org/ns#"
   xmlns:dc="http://purl.org/dc/elements/1.1/">
  <defs
     id="defs15" />
  <sodipodi:namedview
     id="namedview13"
     pagecolor="#ffffff"
     bordercolor="#666666"
     borderopacity="1.0"
     inkscape:pageshadow="2"
     inkscape:pageopacity="0.0"
     inkscape:pagecheckerboard="0"
     showgrid="false"
     inkscape:zoom="2.3606115"
     inkscape:cx="85.571049"
     inkscape:cy="181.73257"
     inkscape:window-width="1920"
     inkscape:window-height="1053"
     inkscape:window-x="0"
     inkscape:window-y="0"
     inkscape:window-maximized="1"
     inkscape:current-layer="svg2" />
  <g
     id="layer1"
     transform="rotate(50.5,623.15304,209.7014)">
    <g
       id="g4267">
      <path
         id="path2279"
         fill="#460085"
         d="m 293.7,737.35 c -7.57,-1.84 -17.11,-6.65 -24.95,-12.58 -7.38,-5.58 -9.18,-7.15 -46.5,-40.52 -12.92,-11.56 -26.87,-23.92 -31,-27.46 -4.12,-3.54 -12.45,-11.18 -18.5,-16.99 -6.05,-5.81 -15.35,-14.49 -20.66,-19.3 -12.24,-11.08 -14.84,-15.77 -14.84,-26.79 0,-8.11 0.93,-10.51 14.61,-37.45 l 3.55,-6.98 -3.49,-3.19 c -4.3,-3.94 -9.06,-5.33 -18.31,-5.34 -7.79,0 -18.7,-2.84 -22.38,-5.82 -1.97,-1.59 -2.14,-2.37 -1.52,-6.88 0.38,-2.8 2.23,-8.12 4.09,-11.83 3.04,-6.04 3.33,-7.33 2.8,-12.41 -0.69,-6.62 1.52,-12.09 6.65,-16.41 5.22,-4.39 9.99,-5.27 17,-3.15 l 5.99,1.81 5.78,-5.51 c 7.72,-7.37 11.32,-9.14 17.34,-8.56 2.63,0.25 5.97,1.23 7.43,2.19 3.86,2.53 6.27,12.67 7.18,21.13 0.82,7.68 4.72,11.27 9.8,14.45 l 3.02,1.89 17.72,-7.93 c 20.59,-9.22 24.64,-10.41 33.07,-9.74 8.04,0.65 14.77,4.08 23.42,11.94 8.94,8.12 23.2,19.49 31.19,24.84 3.54,2.37 11.41,8.4 17.5,13.4 15.02,12.34 27.08,21.24 46.06,34.01 18.13,12.19 25.03,20.85 29.25,28.93 3.9,7.47 4.56,12.23 4.6,22.54 0.04,10.45 -1.68,14.59 -7.93,24.18 -2.86,4.39 -3.4,9.42 -3.39,11.3 0,1.65 0.8,7.99 3.19,13.49 6.66,15.36 7.64,22.93 0.73,30.8 -5.82,6.63 -10.69,8.19 -26.56,3.46 -12.4,-3.7 -13.04,-3.47 -25.89,9.38 -14.1,14.1 -29.45,19.13 -46.05,15.1 z" />
      <path
         id="path2262"
         fill="#330061"
         d="m 296.75,734.79 c -31.71,-9.27 -51.56,-37.65 -76.67,-57.09 -25.32,-23.05 -52.97,-45.64 -76.84,-70.15 -9.29,-16.32 2.56,-35.6 11.13,-49.39 7.02,-18.92 -15.25,-19.88 -29.34,-20.43 -8.51,-0.59 -17.82,-4.71 -8.32,-25.8 4.96,-11.02 -2.34,-23.82 11.62,-15.56 17.14,11.38 -9.21,18.16 -2.49,22.23 6.72,4.06 19.48,16.54 35.55,1.44 13.11,3.09 4.33,43.48 31.14,22.43 8.37,-4.45 27.59,-12.71 23.29,4.35 -4.97,10.45 -20.06,18.44 -10.63,32.42 5.84,14.5 23.98,16.9 31.93,29.84 7.61,11.17 19.29,17.68 32.08,20.65 31.8,19.23 13.52,23.34 38.29,34.26 11.01,-10.37 9.74,-32.27 29.24,-32.88 19.77,-8.55 6.35,-28.7 -7.61,-34.86 -15.39,-10.05 -32.31,-17.74 -46.15,-30.09 -15.53,-7.4 -18.06,-25.05 -26.17,-38.56 -4.85,-12.66 16.31,-17.4 25.67,-8.22 13.64,10.76 28.28,20.69 42.99,31.5 16.96,16.15 36.35,27.99 55.42,41.6 20.28,14.58 23.5,45.76 8.46,65.24 -13.17,19.53 -28.57,37.51 -44,55.28 -12.21,13.34 -29.33,26.53 -48.59,21.79 z m 74.23,-68.69 c 5.03,-2.2 14.39,-21.85 3.39,-11.48 -5.71,3.08 -15.94,26.6 -4.78,13.11 z M 216.32,653.82 c -0.11,-7.13 -21.43,-19.1 -15.01,-6.7 2.84,1.32 14.31,14.96 15.01,6.7 z m 153.61,56.61 c -12.82,-6.56 3.42,-18.1 10.98,-13.84 -1.36,-5.74 -9.79,-14.8 2.75,-13.55 19.73,0.8 9.31,33.33 -3.45,29.45 -3.61,0.33 -7.29,-0.03 -10.28,-2.06 z m -6.45,-128.09 c -6.63,-5.84 9.52,5.78 0,0 z m -56.87,-41.37 c -4.35,-6.73 7.13,5.9 0,0 z M 212.2,515.59 c -13.18,-9.02 44.02,-27.21 30.07,-16.02 -1.81,1.89 -26.56,20 -30.07,16.02 z" />
      <path
         id="path2289"
         transform="matrix(0.72727,0,0,0.77273,67.497,179.78)"
         fill="#951fff"
         d="m 430.83,665.47 a 5.5558,5.5558 0 1 1 -11.11,0 5.5558,5.5558 0 1 1 11.11,0 z" />
      <path
         id="path2281"
         d="m 293.46,737.28 c -7.57,-1.84 -17.12,-6.65 -24.95,-12.58 -7.38,-5.58 -9.18,-7.15 -46.5,-40.53 -12.93,-11.55 -26.88,-23.91 -31,-27.45 -4.13,-3.54 -12.45,-11.18 -18.5,-16.99 -6.05,-5.81 -15.35,-14.49 -20.66,-19.3 -12.25,-11.08 -14.84,-15.77 -14.84,-26.79 0,-8.11 0.93,-10.51 14.61,-37.45 l 3.54,-6.98 -3.48,-3.19 c -4.3,-3.94 -9.06,-5.33 -18.32,-5.34 -7.79,0 -18.7,-2.84 -22.38,-5.82 -1.96,-1.59 -2.14,-2.37 -1.51,-6.88 0.38,-2.8 2.22,-8.12 4.09,-11.83 3.04,-6.04 3.33,-7.33 2.8,-12.41 -0.7,-6.63 1.52,-12.1 6.65,-16.41 5.21,-4.39 9.99,-5.28 16.99,-3.15 l 6,1.81 5.78,-5.52 c 7.72,-7.36 11.32,-9.13 17.33,-8.56 2.63,0.26 5.97,1.24 7.43,2.2 3.87,2.53 8.42,13.02 9.33,21.48 0.82,7.69 2.58,10.92 7.66,14.1 l 3.01,1.89 17.72,-7.93 c 20.6,-9.23 24.64,-10.42 33.07,-9.74 8.04,0.65 14.78,4.08 23.42,11.94 8.94,8.12 23.21,19.48 31.19,24.84 3.54,2.37 11.42,8.4 17.5,13.4 15.03,12.34 27.09,21.24 46.07,34.01 18.12,12.19 26.1,19.42 30.31,27.5 3.91,7.47 5.28,13.66 5.32,23.97 0.04,10.45 -1.68,16.01 -7.93,25.61 -2.86,4.39 -4.55,8.12 -4.55,10 0.01,1.65 1.96,7.5 4.35,13 6.66,15.36 6.57,24.36 -0.34,32.23 -5.82,6.63 -11.41,7.11 -27.27,2.39 -12.41,-3.7 -13.05,-3.47 -25.89,9.38 -14.11,14.1 -29.45,19.13 -46.05,15.1 z m 29.92,-7.66 c 9.07,-5.16 20.75,-16.54 31.11,-30.31 0,0 11.99,-15.74 9.06,-11.25 -0.8,0.96 0.25,1.77 -0.53,3.34 -0.79,1.57 -8.45,11.27 -9.98,12.56 -1.53,1.28 -3.03,2.84 -3.03,3.15 0,0.31 2.36,0.57 5.24,0.57 2.88,0 10.09,1.23 16.02,2.74 l 10.42,1.32 4.07,-0.57 c 4.89,-2.63 8.64,-9.38 8.59,-15.46 -0.02,-2.99 -1.62,-8.5 -4.69,-16.19 -2.56,-6.42 -4.65,-12.38 -4.65,-13.25 0,-2.82 -1.43,-1.66 -4.82,3.94 -1.82,3.01 -3.67,5.47 -4.12,5.47 -0.45,0 -3.51,3.14 -6.62,7.74 -7.37,10.91 -8.44,9.69 -8.44,7.45 0,-0.44 2.58,-3.85 5.75,-7.58 3.16,-3.73 7.01,-8.43 8.56,-10.45 1.54,-2.01 4.05,-5.01 5.56,-6.66 3.62,-3.95 12.75,-19.18 14.54,-24.25 2.45,-6.96 2.85,-14.2 1.21,-22.03 -3.23,-15.38 -10.15,-23.43 -33.62,-39.14 -16.65,-11.13 -28.15,-19.62 -48.15,-35.52 -6.96,-5.54 -17.08,-13.31 -22.5,-17.27 -5.42,-3.97 -14.8,-11.56 -20.85,-16.87 -12.96,-11.39 -19.05,-14.62 -27.54,-14.62 -5.34,0 -7.69,0.83 -24.31,8.64 -10.13,4.75 -19.92,8.88 -21.78,9.17 -2.59,0.4 -4.37,-0.13 -7.62,-2.27 -4.57,-3 -6.52,-7.22 -7.65,-16.62 -0.6,-5.03 -4,-14.11 -6.29,-16.82 -0.74,-0.87 -3.11,-2.18 -5.28,-2.89 -5.32,-1.76 -8.37,-0.4 -17.14,7.65 -3.79,3.49 -7.08,6.34 -7.29,6.34 -0.22,0 -3.42,-0.94 -7.11,-2.08 l -6.72,-2.07 -4.64,2.86 c -3.09,1.91 -5.51,4.48 -7.28,7.73 -2.53,4.65 -2.58,5.07 -1.21,8.96 1.4,3.98 1.34,4.3 -2.11,11.65 -1.95,4.17 -3.66,9.34 -3.79,11.51 l -0.24,3.94 6.8,2.27 c 4.52,1.51 10.21,2.44 16.92,2.78 7.65,0.37 10.89,0.97 13.27,2.44 5.05,3.12 8.51,6.75 8.51,8.93 0,1.1 -4.13,10.37 -9.17,20.59 -8.34,16.91 -9.17,19.1 -9.15,24.28 0.03,8.88 2.97,13.85 14.19,24.01 5.28,4.78 14.56,13.45 20.61,19.25 6.06,5.81 14.39,13.45 18.52,16.99 4.12,3.53 14.25,12.51 22.5,19.96 48.68,43.91 55.4,49.6 63.85,54.11 10.45,5.56 16.02,6.95 26.26,6.54 8.61,-0.34 9.53,-0.6 16.76,-4.71 z m 49.83,-31.14 c -1.32,-1.32 -1.6,-6.68 -0.44,-8.38 2.81,-4.1 9.24,-1.39 9.24,3.9 0,3.95 -1.52,5.68 -5,5.68 -1.43,0 -3.14,-0.54 -3.8,-1.2 z m 5.23,-3.69 c 0.65,-1.06 -2.22,-3.66 -3.08,-2.8 -0.83,0.83 0.37,3.69 1.56,3.69 0.53,0 1.21,-0.4 1.52,-0.89 z" />
      <path
         id="path3296"
         d="m 122.23,516.73 41.92,-34.09 c 0,0 11.87,13.13 12.88,21.97 0.13,1.12 -25.35,24.59 -26.26,25.25 -1.5,1.07 -29.05,-10.86 -28.54,-13.13 z"
         fill-rule="evenodd"
         stroke="#000000"
         stroke-width="1px"
         fill="#951fff" />
      <path
         id="path2311"
         fill-rule="evenodd"
         d="m 164.49,481.03 c -3.59,0.58 -5.19,3.92 -8.08,5.84 -11.95,9.64 -23.47,19.81 -35.13,29.78 -1.48,2.88 3.63,2.27 5.43,3.17 7.85,3.24 15.05,7.84 22.91,11.06 9.61,-8.36 19.45,-16.52 28.07,-25.92 1.84,-2.39 -1.16,-5.93 -2.47,-8.08 -2.96,-5.4 -3.17,-5.45 -5.75,-10.29 -0.51,-0.78 -1.22,-3.51 -4.98,-5.56 z m 1.46,5.45 c 4,5.12 6.6,10.05 9.58,15.78 -0.56,3.54 -6.06,6.53 -8.04,9.2 -6.21,5.91 -11.8,10.4 -18.3,15.99 -7.62,-3.15 -15.76,-8.06 -23.38,-11.21 6.41,-5.35 12.41,-12.74 16.69,-15.18 4.42,-2.53 4.38,-3.32 11.12,-8.26 l 10.48,-9.05 z" />
    </g>
  </g>
</svg>
